# xmcd CD database file
#
# Track frame offsets:
#	150
#	21667
#	23634
#	52531
#	54443
#	90987
#	92897
#	146064
#	169951
#	171753
#	209927
#	211492
#	214909
#	257126
#	258680
#	273787
#	297439
#	330928
#
# Disc length: 4421 seconds
#
# Revision: 0
# Processed by: cddbd v1.5.2PL0 Copyright (c) Steve Scherf et al.
# Submitted via: CDex 1.70beta2
#
DISCID=13114312
DTITLE=Henri TEXIER "Azur" QUARTET - "AN INDIAN'S WEEK"
DYEAR=1993
DGENRE=Jazz
TTITLE0=LAGUNA VENETA
TTITLE1=Mardi
TTITLE2=STANISLAS
TTITLE3=Mercredi
TTITLE4=CYCLOSIS
TTITLE5=Jeudi
TTITLE6=INDIANS - DESAPARECIDO
TTITLE7=SIMONE SIGNORET
TTITLE8=Vendredi
TTITLE9=AMAZONE BLUES
TTITLE10=Samedi
TTITLE11=TZIGANE
TTITLE12=MÂSHALA
TTITLE13=Samedi soir
TTITLE14=THE BRIDGE
TTITLE15=DON'T BUY IVORY, ANYMORE !
TTITLE16=LAGUNA LAITA
TTITLE17=Lundi
EXTD=YEAR: 1993
EXTT0=
EXTT1=
EXTT2=
EXTT3=
EXTT4=
EXTT5=
EXTT6=
EXTT7=
EXTT8=
EXTT9=
EXTT10=
EXTT11=
EXTT12=
EXTT13=
EXTT14=
EXTT15=
EXTT16=
EXTT17=
PLAYORDER=
